<svg xmlns="http://www.w3.org/2000/svg" xmlns:xlink="http://www.w3.org/1999/xlink" version="1.1" x="0px" y="0px" viewBox="0 0 100 125" enable-background="new 0 0 100 100" xml:space="preserve" fill="#ffffff">
	<rect width="100%" height="100%" fill="#3f4048"/>
	<path d="M77.5,56h-7c-0.553,0-1-0.447-1-1s0.447-1,1-1h7c0.553,0,1,0.447,1,1S78.053,56,77.5,56z M71.5,57c-0.553,0-1,0.447-1,1  s0.447,1,1,1h5c0.553,0,1-0.447,1-1s-0.447-1-1-1H71.5z M73,16c0.553,0,1-0.448,1-1v-4c0-0.552-0.447-1-1-1s-1,0.448-1,1v4  C72,15.552,72.447,16,73,16z M64.603,17.505c0.186,0.321,0.521,0.5,0.867,0.5c0.17,0,0.342-0.043,0.499-0.134  c0.479-0.276,0.643-0.888,0.366-1.366l-2.199-3.811c-0.276-0.479-0.89-0.643-1.366-0.366c-0.479,0.276-0.643,0.888-0.366,1.366  L64.603,17.505z M55.17,21.56l3.811,2.2c0.157,0.091,0.329,0.134,0.499,0.134c0.346,0,0.682-0.179,0.867-0.5  c0.276-0.478,0.112-1.09-0.366-1.366l-3.811-2.2c-0.478-0.277-1.09-0.113-1.366,0.366C54.527,20.671,54.691,21.283,55.17,21.56z   M52.5,32h5c0.553,0,1-0.448,1-1s-0.447-1-1-1h-5c-0.553,0-1,0.448-1,1S51.947,32,52.5,32z M58.93,38.678l-3.811,2.2  c-0.479,0.276-0.643,0.888-0.366,1.366c0.186,0.321,0.521,0.5,0.867,0.5c0.17,0,0.342-0.043,0.499-0.134l3.811-2.2  c0.479-0.276,0.643-0.888,0.366-1.366C60.019,38.565,59.405,38.402,58.93,38.678z M92.369,40.727l-3.811-2.2  c-0.479-0.276-1.09-0.113-1.366,0.366c-0.276,0.479-0.112,1.09,0.366,1.366l3.811,2.2c0.157,0.091,0.329,0.134,0.499,0.134  c0.346,0,0.682-0.179,0.867-0.5C93.012,41.615,92.848,41.003,92.369,40.727z M94.5,30h-4c-0.553,0-1,0.448-1,1s0.447,1,1,1h4  c0.553,0,1-0.448,1-1S95.053,30,94.5,30z M88.01,24.044c0.17,0,0.342-0.043,0.499-0.134l3.811-2.2  c0.479-0.276,0.643-0.888,0.366-1.366c-0.277-0.479-0.889-0.643-1.366-0.366l-3.811,2.2c-0.479,0.276-0.643,0.888-0.366,1.366  C87.328,23.865,87.664,24.044,88.01,24.044z M81.52,17.72c0.157,0.091,0.329,0.134,0.499,0.134c0.346,0,0.682-0.179,0.867-0.5  l2.2-3.811c0.276-0.478,0.112-1.09-0.366-1.366c-0.479-0.277-1.09-0.113-1.366,0.366l-2.2,3.811  C80.877,16.832,81.041,17.444,81.52,17.72z M67.859,33.514c0.143,0,0.287-0.03,0.425-0.095c0.498-0.232,0.713-0.826,0.485-1.325  c-0.004-0.007-0.329-0.732-0.332-1.834c-0.004-1.404,0.538-2.725,1.527-3.721c0.99-0.996,2.309-1.545,3.712-1.549  c0.553-0.002,0.999-0.447,0.997-1c-0.002-0.551-0.449-0.99-1-0.99c-0.001,0-0.002,0-0.003,0c-1.938,0-3.758,0.76-5.124,2.135  c-1.366,1.375-2.115,3.193-2.109,5.131c0.005,1.55,0.47,2.571,0.523,2.682C67.132,33.306,67.487,33.514,67.859,33.514z   M62.529,35.038c-0.111-0.245-0.818-1.891-0.825-4.342c-0.011-3.204,1.228-6.052,3.486-8.324C67.448,20.098,70.457,19,73.661,19  c0.012,0,0.025,0,0.037,0c6.598,0,11.975,5.188,11.995,11.79c0.007,2.127-0.453,3.416-0.8,4.264  c-0.022,0.055-0.064,0.092-0.095,0.139c-0.622,1.479-1.212,2.821-1.751,4.047c-1.13,2.567-2.021,4.594-2.557,6.396  c-0.278,0.934-0.761,3.776-0.924,4.792c-0.271,1.406-1.479,2.477-2.879,2.482L70.845,53c-0.002,0-0.005,0-0.008,0  c-1.396,0-2.605-1.063-2.88-2.432c-0.175-1.048-0.676-3.923-0.959-4.855c-0.545-1.794-1.447-3.828-2.59-6.382  c-0.576-1.287-1.207-2.707-1.876-4.276C62.53,35.049,62.531,35.043,62.529,35.038z M63.703,30.69  c0.006,2.126,0.646,3.525,0.653,3.538c0.003,0.007,0.002,0.014,0.005,0.021c0.003,0.006,0.008,0.009,0.01,0.015  c0.663,1.557,1.29,2.956,1.861,4.233c1.172,2.617,2.097,4.684,2.679,6.599c0.379,1.247,0.986,4.957,1.012,5.112  C70.006,50.613,70.392,51,70.837,51c0.001,0,0.001,0,0.002,0l5.844-0.09c0.445-0.001,0.831-0.356,0.916-0.794  c0.019-0.123,0.604-3.784,0.976-5.033c0.571-1.922,1.485-4.009,2.643-6.64c0.562-1.277,1.178-2.68,1.829-4.234  c0.003-0.008,0.011-0.013,0.014-0.021c0.191-0.468,0.64-1.629,0.633-3.55c-0.008-2.67-1.056-5.182-2.949-7.064  c-1.895-1.882-4.44-2.918-7.077-2.908c-2.67,0.008-5.177,1.055-7.059,2.948S63.694,28.02,63.703,30.69z"/>

	<path d="M82.381,76.354l-20.058-2.583c-0.297-0.02-0.595-0.116-0.937-0.325l-13.209-6.683l10.393,2.353  c2.356,0.458,4.655-0.647,5.591-2.686c1.089-2.373,0.197-4.964-2.251-6.343L41.993,51.13c-2.119-1.203-5.48-1.742-7.623-1.742  L22,50.87V46H4v38h18v-4.692l28.505,7.912c0.496,0.125,3.507,0.78,4.1,0.78h27.29c3.785,0,7.605-1.95,7.605-5.75  C89.5,78.443,85.673,76.581,82.381,76.354z M20,82H6V48h14V82z M81.895,86h-27.29c-0.104,0-3.977-0.9-4.354-1  C43.032,83.088,22,77.235,22,77.235V52.884l12.43-1.496c1.82,0.01,4.68,0.475,6.535,1.523l19.98,8.958  c1.67,0.944,1.905,2.552,1.366,3.727c-0.541,1.178-1.951,1.834-3.346,1.563l-16.419-3.72c-0.617-0.141-1.215,0.19-1.428,0.786  c-0.214,0.594,0.043,1.231,0.605,1.516l18.682,9.446c0.543,0.339,1.162,0.539,1.723,0.574l20.026,2.581l0.062,0.006  c0.541,0.035,5.283,0.692,5.283,3.901C87.5,85.651,82.469,86,81.895,86z"/>

</svg>