<svg xmlns="http://www.w3.org/2000/svg" xmlns:xlink="http://www.w3.org/1999/xlink" version="1.1" x="0px" y="0px" viewBox="0 0 128 160" style="enable-background:new 0 0 128 128;" xml:space="preserve"><path d="M84.1981888,110.2304993c-0.156189,0.0048981-13.6971893,0.7900009-25.0292969,1.447197  c-1.1025009,0.0645065-1.9443016,1.0108032-1.8808022,2.1133041c0.0643997,1.1026001,1.0332031,1.9541016,2.1133003,1.8808975  c8.4531021-0.4911957,24.544899-1.4247971,24.9101028-1.4433975c0.8202972-0.0127029,1.6366959,0.2861023,1.6757965,0.5547028  c0.2832031,1.9296951-5.589798,3.4091949-7.5195007,3.8944931c-0.4062958,0.1026001-0.7734985,0.1953049-1.0859985,0.280304  c-2.4765015,0.6768036-14.4139977,3.5518036-19.079998,4.375c-6.7714996,1.2022018-11.9659004,0.8026962-16.343792-1.2567978  c-2.7236099-1.2783051-5.2275085-2.9883041-7.8789101-4.797905c-3.1923981-2.1805954-6.494091-4.434494-10.232399-5.884697  c-2.3144989-0.9023972-4.5723-1.0625-6.5263996-0.4638977c-0.0478001,0.014595-0.0946999,0.0311966-0.1415997,0.0487976  l-1.4393997,0.5615005V99.4746017l9.7812004-1.5557022c0.0723-0.0125961,7.2870979-1.225502,13.3681984,3.0606003  l0.4384003,0.3086014c2.1739082,1.5292969,4.420002,3.1122971,6.5997009,4.7001953  c0.2108994,0.1533051,0.4969978,0.3476028,0.8358994,0.5771027c1.2304993,0.8320999,4.9775009,3.3662033,5.1631012,4.9833984  c0.0107002,0.0938034,0.0282974,0.2442017-0.1797028,0.503006C50.4990005,112.3993988,46.5575905,111,40.0175934,107.8827972  c-1.2471008-0.594696-2.1475029-1.0233994-2.7315025-1.2411957c-1.0360909-0.3838043-2.1865005,0.142601-2.5722008,1.1776962  c-0.3848,1.035202,0.1425018,2.1865997,1.1777,2.5723038c0.4180031,0.1542969,1.3379021,0.5937958,2.4043007,1.1016006  c7.6338005,3.6405945,13.6815987,6.1981964,16.2969017,3.3788986c1.0135994-1.092804,1.464798-2.3993988,1.3065987-3.7793045  c-0.3642006-3.1777954-3.75-5.7138977-6.8955002-7.8407974c-0.2938919-0.1993027-0.5429993-0.3663025-0.7235985-0.4981003  c-2.2032013-1.6054993-4.4639015-3.1972961-6.6504021-4.7372971l-0.4375-0.3076019  c-7.4258003-5.2343979-16.0077991-3.7919998-16.3339977-3.7353973l-9.5673923,1.5214996  C14.4228926,93.4413986,12.3881922,92,10.016592,92H0v28.9365005h10.016592c2.9477997,0,5.3730001-2.2265015,5.6865005-5.0878983  l2.8526001-1.113205c1.352499-0.3896942,2.8319988-0.0078964,3.8417988,0.385704  c3.3125076,1.285202,6.2821999,3.3134995,9.4257011,5.4599991c2.6660995,1.8192978,5.4199982,3.7011032,8.4335976,5.1151962  c3.2607994,1.5332031,6.9473,2.2959061,11.152401,2.2959061c2.3613014,0,4.8857002-0.2402039,7.5898094-0.7197037  c4.8613892-0.8583984,16.8398895-3.7461014,19.4355927-4.455101c0.2889938-0.0791016,0.6307983-0.1651001,1.0116959-0.2607956  c3.9512024-0.9951019,11.3066025-2.8476028,10.4980011-8.3535004  C89.5888901,111.7832031,87.1884918,110.1582031,84.1981888,110.2304993z M11.7392921,115.2207031  c0,0.9462967-0.7734995,1.7157974-1.7227001,1.7157974H4V96h6.016592c0.9492006,0,1.7227001,0.7705002,1.7227001,1.7167969  V115.2207031z"/><path d="M112.2968903,12.1522999l-2.8526001,1.1122999c-1.3554001,0.3907003-2.8320007,0.0068998-3.8417969-0.3857002  c-3.3124924-1.2851-6.2832031-3.3134995-9.4277039-5.4608994C93.5106888,5.5985999,90.7567902,3.7177999,87.743187,2.3037  C82.6532898-0.0889,76.5224915-0.6045,69.0028915,0.7275C64.1395874,1.5858999,52.1610909,4.4735999,49.566391,5.1826  c-0.2900009,0.0791001-0.6318016,0.1651001-1.0107002,0.2607999c-3.9532013,0.9951-11.3085976,2.8476005-10.5,8.3535004  c0.3544998,2.4188995,2.6903992,4.0732002,5.7480011,3.9726009c0.1543083-0.0049,13.6953087-0.7900009,25.027401-1.4472008  c1.1035004-0.0645008,1.9452972-1.0108004,1.8807983-2.1133003c-0.0643997-1.1015997-0.9922028-1.9355993-2.1133041-1.8808994  c-8.4510956,0.4911995-24.5438957,1.4247999-24.9100952,1.4433994c-0.8614006,0.0205002-1.6357994-0.2860994-1.6758003-0.5546999  C41.7294922,11.2870998,47.6024895,9.8076,49.5321922,9.3223c0.4062996-0.1026001,0.7734985-0.1953001,1.0868988-0.2803001  c2.4776001-0.6777,14.4130974-3.5517998,19.0810966-4.375C76.4696884,3.4647999,81.6630936,3.8643,86.0438919,5.9238  c2.722702,1.2782998,5.2247009,2.9873004,7.875,4.7978997c3.1933975,2.1796999,6.496109,4.4345999,10.2343979,5.8846998  c2.3163986,0.9013996,4.5742035,1.0625,6.5273972,0.4638996c0.0468063-0.0145988,0.0937042-0.0311985,0.1406021-0.0487995  l1.4393997-0.5615005v12.0654011l-9.7752991,1.5546989c-0.0703888,0.0137005-7.3398972,1.1933002-13.3731003-3.0595989  l-0.3358994-0.2362995c-2.2070999-1.5537014-4.490303-3.1602001-6.7012024-4.772501  c-0.2108994-0.1532993-0.4981003-0.347599-0.8378983-0.5770988c-1.2304993-0.8320999-4.9766006-3.3662014-5.1621017-4.9834003  c-0.0116959-0.0937996-0.0292969-0.2441998,0.1777039-0.5030003c1.2422028-0.3505001,5.1856003,1.0489006,11.7304993,4.1690006  c1.2461014,0.5946999,2.1464996,1.0233994,2.7304993,1.2411995c1.0351105,0.3827991,2.1875-0.142601,2.572197-1.1777  c0.3848038-1.0352001-0.1424942-2.1865997-1.1776962-2.5723c-0.4160004-0.1543007-1.3378983-0.5937996-2.4042969-1.1016006  c-7.6348038-3.6415997-13.6816025-6.2020998-16.2969055-3.3779001c-1.0135956,1.0918007-1.464798,2.3984003-1.3065948,3.7783003  c0.3651962,3.1777992,3.7518997,5.7138996,6.8964996,7.8407993c0.2929077,0.1993008,0.5429077,0.3663006,0.7245941,0.4981003  c2.2363129,1.6299,4.5312042,3.2461014,6.7518997,4.8086014l0.3339996,0.2362995  C91.5380936,33.625,96.7372894,34.2509995,99.9716873,34.25c1.8457031,0,3.0527039-0.2030983,3.1719055-0.2235985  l9.5654068-1.5214996C113.5770874,34.5586014,115.6122894,36,117.9833908,36h10.0176163V7.0634999h-10.0176163  C115.036087,7.0634999,112.6103897,9.29,112.2968903,12.1522999z M124.0009995,32h-6.0176086  c-0.9492035,0-1.722702-0.7705002-1.722702-1.7168007V12.7792997c0-0.9462996,0.7734985-1.7157993,1.722702-1.7157993h6.0176086V32z  "/><path d="M97.3017883,57.4628983c-0.0157013,0-0.0292969,0-0.0429993,0l-5.2362976,0.0586014  c-0.7734909-3.3671989-2.1368027-6.5-3.9746017-9.2988014l3.6621094-3.7441978  c1.4140015-1.4393997,1.2381897-3.8945007-0.3848114-5.4844017l-2.9356003-2.8710976  c-0.8612976-0.8446999-1.9608994-1.2733994-3.0116959-1.2733994c-0.9277039,0-1.8182983,0.3339996-2.4785004,1.0116997  l-3.6621017,3.7460976c-2.8378983-1.7733994-6-3.0702972-9.3827972-3.7675972l-0.0586014-5.2343025  C69.7743912,28.6016006,67.9442902,27,65.6942902,27c-0.0175018,0-0.0351028,0-0.0526962,0l-4.1055031,0.0449009  c-2.267498,0.0253983-4.0918007,1.6816998-4.0703011,3.6973l0.0606003,5.2362995  c-3.3671989,0.7734985-6.5009995,2.1386986-9.2989006,3.9745979l-3.7440987-3.6581993  c-0.6543007-0.6425972-1.5155983-0.9570007-2.4120979-0.9570007c-1.0781021,0-2.2041016,0.455101-3.0722923,1.3418007  L36.1278915,39.6152c-1.5858917,1.6231003-1.7060013,4.0820999-0.2616997,5.4902992l3.7441978,3.6640015  c-1.774498,2.8378983-3.0712967,5.9981003-3.7705994,9.3808975l-5.232399,0.0586014  C28.588892,58.2304993,26.9755917,60.0918007,27,62.3613014l0.0468922,4.1054955  c0.0243988,2.2588043,1.6591988,4.0703049,3.6551991,4.0703049c0.0137005,0,0.0263996,0,0.0391006,0l5.2363014-0.0586014  c0.7735062,3.365303,2.1406975,6.4981003,3.9765968,9.2929993l-3.6601982,3.7480011  c-1.4160004,1.4413986-1.2392006,3.8945999,0.3829002,5.4843979l2.9335976,2.8731003  c0.8632011,0.8427048,1.9619026,1.2705002,3.0136108,1.2705002c0.9267921,0,1.8173904-0.3330002,2.4784889-1.0087967  l3.6631012-3.7461014c2.8368988,1.7753983,6,3.0682983,9.3828011,3.767601l0.0566978,5.232399  C58.2284927,99.3964996,60.0575905,101,62.3036919,101c0.0175972,0,0.0351982,0,0.0527,0l4.1074982-0.0468979  c2.2714996-0.0254059,4.0937042-1.6797028,4.072197-3.6992035l-0.0604935-5.2343979  c3.3651962-0.7714996,6.5018997-2.1386032,9.2987976-3.9765015l3.7422028,3.6621017  c0.6542969,0.6416016,1.5194931,0.9560013,2.414093,0.9560013c1.0781021,0,2.2031021-0.4541016,3.0703125-1.3408051  l2.8730011-2.9335938c1.5878906-1.6268997,1.7030869-4.0840073,0.2636871-5.4922028l-3.7460938-3.6660004  c1.7754059-2.8358994,3.0702972-5.9980011,3.7694931-9.3788986l5.2344055-0.0625  c2.0155945-0.0214996,3.6308975-1.8788986,3.6055069-4.1503983l-0.0469131-4.1074028  C100.928688,59.2753983,99.2958908,57.4628983,97.3017883,57.4628983z M96.993187,65.7919998l-4.8808975,0.0576019  l-3.2167969,0.0391006l-0.6523056,3.1503983c-0.5917969,2.8602982-1.681694,5.5741959-3.2421875,8.0672989l-1.7089996,2.7285995  l2.3007889,2.2518997l3.4922104,3.4169998c-0.0176086,0.0263977-0.0411072,0.0547028-0.0704117,0.0849991l-2.8729935,2.9345016  c-0.0293045,0.030304-0.0565948,0.0537033-0.0820007,0.0723038l-3.4883041-3.4121017l-2.3026962-2.2519989l-2.6915054,1.7686005  c-2.4627991,1.6181946-5.152298,2.7686005-7.9959946,3.4208984l-3.1445999,0.719696l0.0391006,3.2256012l0.0565948,4.8759995  c-0.031189,0.0057983-0.0702972,0.010704-0.1151886,0.010704L62.3036919,97c-0.0391006,0-0.0723-0.0028992-0.1016006-0.0077972  l-0.0527-4.875l-0.035099-3.2217026l-3.156292-0.652298c-2.8652077-0.592804-5.5801086-1.6827011-8.0703087-3.2412033  l-2.7304993-1.7089996l-2.2518997,2.3027039l-3.4131012,3.4911957c-0.0264015-0.0166016-0.0536995-0.0390015-0.0830002-0.0673981  l-2.9325981-2.8720016c-0.0303001-0.0302963-0.0557022-0.0596008-0.0743027-0.0859985l3.4131012-3.4951019l2.2481003-2.301796  l-1.7656021-2.6893997c-1.6171989-2.4619064-2.7695999-5.1514053-3.4218903-7.9922028l-0.7217064-3.1406021l-3.2217026,0.0361023  l-4.8749981,0.0547028c-0.0058002-0.0312042-0.0107002-0.0684052-0.0117016-0.1123047L31,62.3184013  c-0.0009995-0.0440025,0.0028915-0.0820999,0.008791-0.1133003l4.8760014-0.0547028l3.2196999-0.0360985l0.652298-3.1543007  c0.589901-2.8544998,1.6817017-5.5704002,3.2452087-8.0694008l1.7060013-2.7294998l-2.2998085-2.25l-3.4892998-3.4149971  c0.017601-0.0264015,0.0391083-0.0547028,0.0684013-0.0839996l2.8690987-2.9336014  c0.0303001-0.0312004,0.0596085-0.0546989,0.0859985-0.0741997l3.4902,3.4101982L47.7333908,45.0625l2.6884995-1.7655983  c2.4629021-1.615303,5.1543007-2.7666016,8-3.4199028l3.1416016-0.7216988l-0.0371017-3.222702l-0.0566978-4.8768978  c0.0313072-0.0069008,0.0683975-0.0107994,0.1114006-0.0107994L65.6864929,31h0.0077972  c0.0410995,0,0.0762024,0.0028992,0.1054993,0.0077991L65.8544922,35.8848l0.0350952,3.222599l3.1563034,0.6504021  C71.9013901,40.3456993,74.618187,41.4365005,77.118187,43l2.7304001,1.705101l2.25-2.3017998l3.4121017-3.4892006  c0.0253983,0.017498,0.052803,0.0400009,0.0820999,0.0692978l2.9336014,2.8672028  c0.0311966,0.0303001,0.0547028,0.059597,0.0742035,0.0858994l-3.4121017,3.4892998l-2.2519989,2.3017006l1.767601,2.6913986  c1.6132965,2.4561005,2.7655945,5.1474991,3.4199066,7.9990997l0.7226868,3.1395988l3.2207031-0.0360985l4.8768997-0.0546989  c0.0058975,0.0303001,0.0097961,0.0663986,0.0097961,0.107399l0.0469131,4.1074028  C97.0009995,65.7236023,96.9970932,65.7606964,96.993187,65.7919998z"/><path d="M64.0009995,49.0078011c-8.2246094,0-14.8916092,6.7128983-14.8916092,14.9921989  s6.6669998,14.9922028,14.8916092,14.9922028c8.2245941,0,14.8905945-6.7129059,14.8905945-14.9922028  S72.2255936,49.0078011,64.0009995,49.0078011z M64.0009995,74.9922028c-6.005909,0-10.8916092-4.9307022-10.8916092-10.9922028  s4.8857002-10.9921989,10.8916092-10.9921989c6.003891,0,10.8905945,4.9306984,10.8905945,10.9921989  S70.0048904,74.9922028,64.0009995,74.9922028z"/><text x="0" y="143" fill="#000000" font-size="5px" font-weight="bold" font-family="'Helvetica Neue', Helvetica, Arial-Unicode, Arial, Sans-serif">Created by priyanka</text><text x="0" y="148" fill="#000000" font-size="5px" font-weight="bold" font-family="'Helvetica Neue', Helvetica, Arial-Unicode, Arial, Sans-serif">from the Noun Project</text></svg>