<svg xmlns="http://www.w3.org/2000/svg" xmlns:xlink="http://www.w3.org/1999/xlink" version="1.1" x="0px" y="0px" viewBox="0 0 66 82.5" style="enable-background:new 0 0 66 66;" xml:space="preserve" fill="#ffffff"><rect width="100%" height="100%" fill="#3f4048"/><g><g><path d="M41.2,52c0.5-0.1,0.8-0.5,0.8-1V38.3c0,0,0,0,0,0s0,0,0,0v-4.3c0-0.6-0.4-1-1-1c-1.9,0-15.3,0-17.1,0c-0.6,0-1,0.4-1,1v16    h-1.8V38.3c0,0,0,0,0,0s0,0,0,0v-4.3c0-0.6-0.4-1-1-1c-1.9,0-15.3,0-17.1,0c-0.6,0-1,0.4-1,1v17c0,0.5,0.3,0.9,0.8,1    C1.1,53.4,0,55.6,0,58c0,4.4,3.6,8,8,8h28c4.4,0,8-3.6,8-8C44,55.6,42.9,53.4,41.2,52z M40,37.3h-3.9v-2.4H40V37.3z M34.1,34.9    v3.8l-1-0.9c-0.2-0.2-0.4-0.2-0.7-0.2c-0.2,0-0.5,0.1-0.7,0.2l-1,0.9v-3.8H34.1z M28.8,34.9v2.4h-3.9v-2.4H28.8z M24.9,39.3h3.9    v1.6c0,0.4,0.2,0.7,0.6,0.9c0.4,0.2,0.8,0.1,1.1-0.2l2-1.8l2,1.8c0.3,0.3,0.7,0.3,1.1,0.2c0.4-0.2,0.6-0.5,0.6-0.9v-1.6H40V50    c-3.5,0-6.6,0-15.1,0V39.3z M19.1,37.3h-3.9v-2.4h3.9V37.3z M13.2,34.9v3.8l-1-0.9c-0.2-0.2-0.4-0.2-0.7-0.2    c-0.2,0-0.5,0.1-0.7,0.2l-1,0.9v-3.8H13.2z M7.9,34.9v2.4H4v-2.4H7.9z M4,50V39.3h3.9v1.6c0,0.4,0.2,0.7,0.6,0.9    c0.4,0.2,0.8,0.1,1.1-0.2l2-1.8l2,1.8c0.3,0.3,0.7,0.3,1.1,0.2c0.4-0.2,0.6-0.5,0.6-0.9v-1.6h3.9V50C10.7,50,7.4,50,4,50z M36,64    H8c-3.3,0-6-2.7-6-6c0-3.3,2.7-6,6-6c15.7,0,12.3,0,28,0c3.3,0,6,2.7,6,6C42,61.3,39.3,64,36,64z"/></g><g><path d="M10,53.4c-2.5,0-4.6,2.1-4.6,4.6c0,2.5,2.1,4.6,4.6,4.6c2.5,0,4.6-2.1,4.6-4.6C14.6,55.5,12.5,53.4,10,53.4z M10,60.6    c-1.4,0-2.6-1.2-2.6-2.6c0-1.4,1.2-2.6,2.6-2.6c1.4,0,2.6,1.2,2.6,2.6C12.6,59.4,11.4,60.6,10,60.6z"/></g><g><path d="M34,53.4c-2.5,0-4.6,2.1-4.6,4.6c0,2.5,2.1,4.6,4.6,4.6c2.5,0,4.6-2.1,4.6-4.6C38.6,55.5,36.5,53.4,34,53.4z M34,60.6    c-1.4,0-2.6-1.2-2.6-2.6c0-1.4,1.2-2.6,2.6-2.6c1.4,0,2.6,1.2,2.6,2.6C36.6,59.4,35.4,60.6,34,60.6z"/></g><g><path d="M22,53.4c-2.5,0-4.6,2.1-4.6,4.6c0,2.5,2.1,4.6,4.6,4.6c2.5,0,4.6-2.1,4.6-4.6C26.6,55.5,24.5,53.4,22,53.4z M22,60.6    c-1.4,0-2.6-1.2-2.6-2.6c0-1.4,1.2-2.6,2.6-2.6c1.4,0,2.6,1.2,2.6,2.6C24.6,59.4,23.4,60.6,22,60.6z"/></g><g><path d="M65,55h-0.7v-3.4c0-0.6-0.4-1-1-1h-2.1l-1.3-29.4c1.3-1.1,2.1-2.6,2.1-4.4c0-3.2-2.6-5.8-5.8-5.8c-0.3,0-0.5,0-0.8,0.1    L38.5,3.7C37.7,1.6,35.6,0,33.2,0c-2.5,0-4.6,1.6-5.4,3.9l-9.5,7.3c-1.3,0.6-2.1,1.8-2.1,3.3c0,1.6,1.1,3,2.6,3.4V19h-1    c-0.4,0-0.7,0.2-0.9,0.5l-1.8,3.2h-2.8c-0.3,0-0.6,0.2-0.8,0.4c-0.2,0.3-0.2,0.6-0.1,0.9l2,5c0.2,0.5,0.8,0.8,1.3,0.6    c0.5-0.2,0.8-0.8,0.6-1.3l-1.5-3.6h1.9h8.2c0,0,0,0,0,0h1.9l-1.3,3.6c-0.2,0.5,0.1,1.1,0.6,1.3c0.5,0.2,1.1-0.1,1.3-0.6l1.7-5    c0.1-0.3,0.1-0.6-0.1-0.9c-0.2-0.3-0.5-0.4-0.8-0.4h-2.8l-1.8-3.2c-0.2-0.3-0.5-0.5-0.9-0.5h-1v-1.1c1.3-0.4,2.3-1.5,2.5-2.9    l6.7-4.7c0.9,0.6,2,1,3.2,1c1.2,0,2.3-0.4,3.3-1l14,7.4c0.2,1.4,0.9,2.7,2,3.6L51,50.7h-2.3c-0.6,0-1,0.4-1,1V55h-0.6    c-0.6,0-1,0.4-1,1v9c0,0.6,0.4,1,1,1H65c0.6,0,1-0.4,1-1v-9C66,55.5,65.6,55,65,55z M22.1,22.6h-4.7l1-1.6h2.8L22.1,22.6z     M50.5,15.5L37.9,8.8c0.5-0.8,0.9-1.7,0.9-2.7l13.9,6.1C51.6,13,50.8,14.2,50.5,15.5z M21.4,11.3l6.2-4.7c0.1,0.9,0.5,1.7,0.9,2.3    l-5.6,3.9C22.6,12.2,22,11.7,21.4,11.3z M19.7,16.1C19.7,16.1,19.7,16.1,19.7,16.1C19.7,16.1,19.7,16.1,19.7,16.1    c-0.9,0-1.6-0.7-1.6-1.6c0-0.9,0.7-1.6,1.6-1.6c0.9,0,1.6,0.7,1.6,1.6C21.3,15.3,20.6,16.1,19.7,16.1z M29.5,5.7    c0-2,1.6-3.7,3.7-3.7c2,0,3.7,1.6,3.7,3.7s-1.6,3.7-3.7,3.7C31.1,9.3,29.5,7.7,29.5,5.7z M56.1,13.1c2.1,0,3.8,1.7,3.8,3.8    c0,2.1-1.7,3.8-3.8,3.8c-2.1,0-3.8-1.7-3.8-3.8C52.3,14.8,54,13.1,56.1,13.1z M54.3,22.4c0.6,0.2,1.2,0.3,1.8,0.3    c0.6,0,1.2-0.1,1.8-0.3l1.3,28.3H53L54.3,22.4z M49.7,52.7c1.6,0,11.8,0,12.6,0V55H49.7V52.7z M64,64H48.1v-7c6.4,0-10.1,0,15.9,0 V64z"/></g></g></svg>