<svg xmlns="http://www.w3.org/2000/svg" xmlns:xlink="http://www.w3.org/1999/xlink" version="1.1" x="0px" y="0px" viewBox="0 0 52 65" style="enable-background:new 0 0 52 52;" xml:space="preserve"><g><path d="M20.9,22.7c-0.4-0.1-0.8,0-1,0.2c-0.3,0.3-0.4,0.7-0.2,1c0.4,1.1,2.2,6.6,3.5,7.9c0.8,0.8,1.8,1.2,2.8,1.2   c3.6,0,5.3-4.3,2.8-6.8C27.6,24.9,22,23,20.9,22.7z M24.6,30.4c-0.5-0.5-1.5-2.8-2.3-5.2c2.4,0.9,4.7,1.8,5.2,2.3   C29.3,29.5,26.4,32.3,24.6,30.4z"/><path d="M10,29c0,14.6,18.2,21.3,27.3,11.3c6.2-6.2,6.2-16.3,0-22.5C28.2,7.7,10,14.3,10,29z M39.9,30c-0.2,3.1-1.5,5.9-3.4,8.2   l-0.7-0.7c-0.9-0.9-2.3,0.5-1.4,1.4l0.7,0.7c-2.2,1.9-5,3.2-8.2,3.4V42c0-1.3-2-1.3-2,0v0.9c-3.1-0.2-5.9-1.5-8.2-3.4   c0.2-0.2,1.6-1.1,0.7-2.1c-0.4-0.4-1-0.4-1.4,0l-0.7,0.7c-1.9-2.2-3.2-5-3.4-8.2c0.3-0.1,1.9,0.3,1.9-1c0-0.6-0.4-1-1-1H12   c0.2-3.1,1.5-5.9,3.4-8.2c0.5,0.4,0.7,1,1.4,1c0.9,0,1.3-1.1,0.7-1.7l-0.7-0.7c2.2-1.9,5-3.2,8.2-3.4c0.1,0.3-0.3,1.9,1,1.9   c1.4,0,0.9-1.6,1-1.9c3.1,0.2,5.9,1.5,8.2,3.4l-0.7,0.7c-0.6,0.6-0.2,1.7,0.7,1.7c0.6,0,0.9-0.5,1.4-1c1.9,2.2,3.2,5,3.4,8.2   c-0.3,0.1-1.9-0.3-1.9,1C38,30.4,39.6,29.9,39.9,30z"/><path d="M44.3,14c0.3,0,0.5-0.1,0.7-0.3l2.1-2.1c1.2-1.2,1.2-3.1,0-4.3l-2.5-2.5c-1.2-1.2-3.1-1.2-4.3,0L38.3,7   c-1.1,1.1,1,2.2,1.9,3.4l-1.8,1.8c-2.3-1.7-4.9-2.9-7.7-3.6C31.8,5.3,29.4,2,26,2c-2.8,0-5,2.2-5,5c0,0.5,0.1,1.1,0.3,1.6   c-2.8,0.7-5.4,1.9-7.7,3.6l-1.8-1.8c0.9-1.1,3-2.3,1.9-3.4l-2.1-2.1c-1.2-1.2-3.1-1.2-4.3,0L4.9,7.3c-1.2,1.2-1.2,3.1,0,4.3   c1.5,1.4,2.5,3.1,3.5,2.1l1.9-1.9l1.6,1.6C-2.3,26.2,6.8,50,26,50c11.6,0,21-9.4,21-21c0-6.2-2.7-11.8-7-15.6l1.6-1.6   C43.4,13.4,43.6,14,44.3,14z M7.7,11.6c-0.5-0.7-2.5-1.8-1.4-2.8C7.8,7.5,9,5.1,10.2,6.3l1.4,1.4L7.7,11.6z M23.3,8.2   C22.4,6.2,23.8,4,26,4c2.2,0,3.6,2.2,2.7,4.2C26.9,8,25.3,7.9,23.3,8.2z M45,29c0,10.5-8.5,19-19,19S7,39.5,7,29   c0-9.4,6.9-17.3,15.9-18.7C34.5,8.4,45,17.4,45,29z M43.2,6.3c1.3,1.6,3.6,2.7,2.5,3.9l-1.4,1.4l-3.9-3.9   C41.1,7.2,42.2,5.2,43.2,6.3z"/></g><text x="0" y="67" fill="#000000" font-size="5px" font-weight="bold" font-family="'Helvetica Neue', Helvetica, Arial-Unicode, Arial, Sans-serif">Created by Dinosoft Labs</text><text x="0" y="72" fill="#000000" font-size="5px" font-weight="bold" font-family="'Helvetica Neue', Helvetica, Arial-Unicode, Arial, Sans-serif">from the Noun Project</text></svg>