<svg xmlns="http://www.w3.org/2000/svg" xmlns:xlink="http://www.w3.org/1999/xlink" version="1.1" x="0px" y="0px" viewBox="0 0 100 125" enable-background="new 0 0 100 100" xml:space="preserve"><g><path d="M17.11,83.348c-0.384,0-0.768-0.146-1.061-0.439l-7.921-7.92c-0.281-0.281-0.439-0.663-0.439-1.061   s0.158-0.779,0.439-1.061l22.92-22.92l0.001-9.938c0-0.398,0.158-0.779,0.439-1.061l6.6-6.601c0.301-0.3,0.71-0.462,1.137-0.438   l10.046,0.514c0.828,0.042,1.464,0.747,1.422,1.575c-0.025,0.487-0.279,0.908-0.653,1.163c-0.054,0.079-0.115,0.155-0.186,0.225   l-8.18,8.18l5.799,5.799l8.48-8.483c0.417-0.418,1.042-0.553,1.593-0.345c0.553,0.208,0.932,0.722,0.968,1.311l0.613,9.949   c0.026,0.429-0.133,0.849-0.437,1.153l-6.601,6.6c-0.285,0.285-0.702,0.436-1.075,0.439l-9.832-0.094L18.171,82.908   C17.878,83.201,17.494,83.348,17.11,83.348z M11.311,73.927l5.8,5.799l22.397-22.397c0.285-0.285,0.695-0.442,1.075-0.439   l9.832,0.094l5.677-5.677l-0.366-5.951l-7.191,7.191c-0.563,0.563-1.559,0.563-2.121,0l-7.92-7.921   c-0.586-0.586-0.586-1.536,0-2.121l7.258-7.258l-6.013-0.307l-5.688,5.689l-0.001,9.938c0,0.398-0.158,0.779-0.439,1.061   L11.311,73.927z"/></g><g><path d="M61.633,37.482c-0.13,0-0.26-0.017-0.389-0.051l-4.979-1.334c-0.518-0.139-0.922-0.543-1.061-1.061l-1.334-4.979   c-0.139-0.518,0.01-1.07,0.389-1.449l3.645-3.646c0.38-0.379,0.932-0.526,1.449-0.388l4.979,1.335   c0.518,0.139,0.922,0.543,1.061,1.06l1.335,4.979c0.139,0.518-0.01,1.07-0.389,1.449l-3.646,3.646   C62.408,37.328,62.025,37.482,61.633,37.482z M57.878,33.423l3.307,0.886l2.421-2.421l-0.887-3.306l-3.307-0.886l-2.42,2.421   L57.878,33.423z"/></g><g><path d="M50.037,25.886c-0.13,0-0.26-0.017-0.389-0.051L44.669,24.5c-0.518-0.139-0.922-0.543-1.061-1.06l-1.335-4.979   c-0.139-0.518,0.01-1.07,0.389-1.45l3.646-3.646c0.38-0.378,0.932-0.526,1.449-0.388l4.979,1.334   c0.518,0.139,0.922,0.543,1.061,1.061l1.334,4.979c0.139,0.518-0.01,1.07-0.389,1.449l-3.646,3.646   C50.813,25.731,50.43,25.886,50.037,25.886z M46.282,21.827l3.307,0.886l2.421-2.421l-0.886-3.306L47.817,16.1l-2.422,2.421   L46.282,21.827z"/></g><g><path d="M73.998,49.847c-0.13,0-0.26-0.017-0.389-0.051l-4.979-1.334c-0.518-0.139-0.922-0.543-1.061-1.061l-1.334-4.979   c-0.139-0.518,0.01-1.07,0.389-1.449l3.645-3.646c0.38-0.379,0.933-0.527,1.449-0.388l4.979,1.334   c0.518,0.139,0.922,0.543,1.061,1.061l1.335,4.979c0.139,0.518-0.01,1.07-0.389,1.449l-3.646,3.646   C74.773,49.692,74.391,49.847,73.998,49.847z M70.243,45.788l3.307,0.886l2.421-2.421l-0.887-3.307l-3.307-0.886l-2.42,2.421   L70.243,45.788z"/></g><g><path d="M86.362,62.211c-0.13,0-0.26-0.017-0.389-0.051l-4.979-1.334c-0.518-0.139-0.922-0.543-1.061-1.061L78.6,54.786   c-0.139-0.518,0.01-1.07,0.389-1.449l3.646-3.645c0.38-0.378,0.933-0.525,1.449-0.388l4.979,1.334   c0.518,0.139,0.922,0.543,1.061,1.061l1.335,4.979c0.139,0.518-0.01,1.07-0.389,1.449l-3.646,3.646   C87.138,62.057,86.755,62.211,86.362,62.211z M82.607,58.152l3.307,0.886l2.422-2.421l-0.887-3.307l-3.306-0.886l-2.422,2.421   L82.607,58.152z"/></g><g><path d="M20.392,70.279c-0.384,0-0.768-0.146-1.061-0.439c-0.586-0.585-0.586-1.535,0-2.121l13.067-13.068   c0.586-0.586,1.535-0.586,2.121,0c0.586,0.585,0.586,1.535,0,2.121L21.452,69.84C21.159,70.133,20.775,70.279,20.392,70.279z"/></g><text x="0" y="115" fill="#000000" font-size="5px" font-weight="bold" font-family="'Helvetica Neue', Helvetica, Arial-Unicode, Arial, Sans-serif">Created by Alexander  Bogomolov</text><text x="0" y="120" fill="#000000" font-size="5px" font-weight="bold" font-family="'Helvetica Neue', Helvetica, Arial-Unicode, Arial, Sans-serif">from the Noun Project</text></svg>