<svg xmlns="http://www.w3.org/2000/svg" xmlns:xlink="http://www.w3.org/1999/xlink" version="1.1" x="0px" y="0px" viewBox="0 0 64 80" style="enable-background:new 0 0 64 64;" xml:space="preserve"><path d="M19,13H3c-0.553,0-1,0.447-1,1v22c0,0.314,0.148,0.611,0.4,0.8l7.6,5.7v1.559C5.507,44.558,2,48.375,2,53  c0,4.963,4.037,9,9,9s9-4.037,9-9c0-4.625-3.507-8.442-8-8.941V42.5l7.6-5.7c0.252-0.188,0.4-0.485,0.4-0.8V14  C20,13.447,19.553,13,19,13z M14,15v23.5l-3,2.25L8,38.5V15H14z M4,15h2v22l-2-1.5V15z M18,53c0,3.859-3.141,7-7,7s-7-3.141-7-7  s3.141-7,7-7S18,49.141,18,53z M18,35.5L16,37V15h2V35.5z"/><path d="M41,2H23c-0.553,0-1,0.447-1,1v22c0,0.334,0.167,0.646,0.445,0.832L31,31.535v3.188L28.434,39H23  c-0.385,0-0.734,0.221-0.901,0.566c-0.166,0.347-0.12,0.758,0.12,1.059L25.72,45l-3.501,4.375c-0.24,0.301-0.286,0.712-0.12,1.059  C22.266,50.779,22.615,51,23,51h5.434l2.709,4.515C31.323,55.815,31.648,56,32,56s0.677-0.185,0.857-0.485L35.566,51H41  c0.385,0,0.734-0.221,0.901-0.566c0.166-0.347,0.12-0.758-0.12-1.059L38.28,45l3.501-4.375c0.24-0.301,0.286-0.712,0.12-1.059  C41.734,39.221,41.385,39,41,39h-5.434L33,34.723v-3.188l8.555-5.703C41.833,25.646,42,25.334,42,25V3C42,2.447,41.553,2,41,2z   M36,4v23.131l-4,2.667l-4-2.667V4H36z M24,4h2v21.798l-2-1.333V4z M35,41h3.919l-2.7,3.375c-0.292,0.365-0.292,0.885,0,1.25  l2.7,3.375H35c-0.352,0-0.677,0.185-0.857,0.485L32,53.057l-2.143-3.571C29.677,49.185,29.352,49,29,49h-3.919l2.7-3.375  c0.292-0.365,0.292-0.885,0-1.25L25.081,41H29c0.352,0,0.677-0.185,0.857-0.485L32,36.943l2.143,3.571  C34.323,40.815,34.648,41,35,41z M40,24.465l-2,1.333V4h2V24.465z"/><path d="M6,53c0,2.757,2.243,5,5,5s5-2.243,5-5s-2.243-5-5-5S6,50.243,6,53z M14,53c0,1.654-1.346,3-3,3s-3-1.346-3-3s1.346-3,3-3  S14,51.346,14,53z"/><path d="M61.6,36.8c0.252-0.188,0.4-0.485,0.4-0.8V14c0-0.553-0.447-1-1-1H45c-0.553,0-1,0.447-1,1v22c0,0.314,0.148,0.611,0.4,0.8  l7.6,5.7v1.559c-4.493,0.499-8,4.316-8,8.941c0,4.963,4.037,9,9,9s9-4.037,9-9c0-4.625-3.507-8.442-8-8.941V42.5L61.6,36.8z   M53,40.75l-3-2.25V15h6v23.5L53,40.75z M60,35.5L58,37V15h2V35.5z M46,15h2v22l-2-1.5V15z M60,53c0,3.859-3.141,7-7,7s-7-3.141-7-7  s3.141-7,7-7S60,49.141,60,53z"/><path d="M48,53c0,2.757,2.243,5,5,5s5-2.243,5-5s-2.243-5-5-5S48,50.243,48,53z M56,53c0,1.654-1.346,3-3,3s-3-1.346-3-3  s1.346-3,3-3S56,51.346,56,53z"/><rect x="35" y="58" width="2" height="2"/><rect x="31" y="58" width="2" height="2"/><rect x="27" y="58" width="2" height="2"/><rect x="31" y="6" width="2" height="2"/><rect x="31" y="10" width="2" height="2"/><rect x="31" y="14" width="2" height="2"/><rect x="31" y="18" width="2" height="2"/><rect x="31" y="22" width="2" height="2"/><rect x="31" y="26" width="2" height="2"/><rect x="56" y="9" width="2" height="2"/><rect x="52" y="9" width="2" height="2"/><rect x="48" y="9" width="2" height="2"/><rect x="14" y="9" width="2" height="2"/><rect x="10" y="9" width="2" height="2"/><rect x="6" y="9" width="2" height="2"/><text x="0" y="79" fill="#000000" font-size="5px" font-weight="bold" font-family="'Helvetica Neue', Helvetica, Arial-Unicode, Arial, Sans-serif">Created by Becris</text><text x="0" y="84" fill="#000000" font-size="5px" font-weight="bold" font-family="'Helvetica Neue', Helvetica, Arial-Unicode, Arial, Sans-serif">from the Noun Project</text></svg>