<svg xmlns="http://www.w3.org/2000/svg" data-name="Layer 1" viewBox="0 0 100 125" x="0px" y="0px"><title>11</title><g data-name="Group"><path data-name="Path" d="M34.8,45.2a2,2,0,0,0,0-4H11.5a2,2,0,0,0,0,4Z"/><path data-name="Compound Path" d="M3.4,52.5a2,2,0,0,0,2,2h9.9v9.6a6,6,0,0,0,6,6h.8a9.3,9.3,0,0,0,9.1,7.4,9.2,9.2,0,0,0,9-7.4H71.6a9.3,9.3,0,0,0,9.1,7.4,9.2,9.2,0,0,0,9-7.4h1.9a5,5,0,0,0,5-5V51a5.1,5.1,0,0,0-4.5-5l-5-9.1a8.1,8.1,0,0,0-7-4.1H68.2V28.5a6,6,0,0,0-6-6H21.3a6,6,0,0,0-6,6V32H5.4a2,2,0,0,0,0,4H28.7a2,2,0,1,0,0-4H19.3V28.5a2,2,0,0,1,2-2H62.2a2,2,0,0,1,2,2V66.1H40.1a9.2,9.2,0,0,0-17.9,0h-.9a2,2,0,0,1-2-2V54.5h9.4a2,2,0,1,0,0-4H5.4A2,2,0,0,0,3.4,52.5Zm77.3,21a5.3,5.3,0,1,1,5.2-5.2A5.2,5.2,0,0,1,80.7,73.5Zm-.6-36.7a4,4,0,0,1,3.5,2.1L87.5,46H68.2V36.8ZM68.2,50H91.6a.9.9,0,0,1,1,1V65.1a1,1,0,0,1-1,1h-2A9.2,9.2,0,0,0,80.7,59a9.3,9.3,0,0,0-9,7.1H68.2Zm-37,13a5.3,5.3,0,1,1-5.3,5.3A5.3,5.3,0,0,1,31.2,63Z"/></g><text x="0" y="115" fill="#000000" font-size="5px" font-weight="bold" font-family="'Helvetica Neue', Helvetica, Arial-Unicode, Arial, Sans-serif">Created by Amelia</text><text x="0" y="120" fill="#000000" font-size="5px" font-weight="bold" font-family="'Helvetica Neue', Helvetica, Arial-Unicode, Arial, Sans-serif">from the Noun Project</text></svg>