<svg xmlns="http://www.w3.org/2000/svg" xmlns:xlink="http://www.w3.org/1999/xlink" version="1.1" x="0px" y="0px" viewBox="0 0 100 125" enable-background="new 0 0 100 100" xml:space="preserve"><g><path d="M72.634,68.668H47.199l-2.247-2.297l1.962-1.059h6.353c2.117,0,3.84-1.586,3.84-3.533s-1.723-3.531-3.84-3.531h-9.724   c-0.791,0-1.562,0.227-2.22,0.648l-4.676,2.32h-9.283v-1.451H16.259v20.381h11.105v-1.328h2.277l5.18,2.486l0.841,0.361h12.466   l24.169-5.729c0.216-0.025,0.422-0.068,0.585-0.117l0.101-0.023c0.474-0.143,0.896-0.275,1.218-0.463   c1.183-0.605,1.917-1.809,1.917-3.145C76.117,70.248,74.555,68.668,72.634,68.668z M18.259,61.766h7.105v16.381h-7.105V61.766z    M73.245,73.576c-0.154,0.09-0.396,0.172-0.785,0.291l-0.078,0.018c-0.116,0.033-0.234,0.059-0.357,0.07l-24.131,5.711h-11.82   l-5.977-2.848h-2.732V63.217h9.75l5.076-2.51l0.204-0.121c0.344-0.221,0.741-0.338,1.148-0.338h9.724   c1.015,0,1.84,0.688,1.84,1.531c0,0.846-0.825,1.533-1.84,1.533h-6.858l-4.741,2.561l4.69,4.795h26.276   c0.818,0,1.483,0.682,1.483,1.521C74.117,72.77,73.801,73.291,73.245,73.576z"/><path d="M71.478,40.494c-6.763,0-12.264,5.501-12.264,12.264c0,6.762,5.501,12.262,12.264,12.262s12.264-5.5,12.264-12.262   C83.741,45.995,78.24,40.494,71.478,40.494z M71.478,63.02c-5.659,0-10.264-4.604-10.264-10.262c0-5.66,4.604-10.264,10.264-10.264   s10.264,4.604,10.264,10.264C81.741,58.416,77.137,63.02,71.478,63.02z"/><rect x="59.214" y="28.167" width="2" height="14"/><rect x="66.122" y="18.333" width="2" height="20.334"/><polygon points="69.135,54.793 67.229,52.887 65.97,54.146 67.876,56.051 69.135,57.311 76.985,49.461 75.726,48.202  "/></g><text x="0" y="115" fill="#000000" font-size="5px" font-weight="bold" font-family="'Helvetica Neue', Helvetica, Arial-Unicode, Arial, Sans-serif">Created by asianson.design</text><text x="0" y="120" fill="#000000" font-size="5px" font-weight="bold" font-family="'Helvetica Neue', Helvetica, Arial-Unicode, Arial, Sans-serif">from the Noun Project</text></svg>