<svg xmlns="http://www.w3.org/2000/svg" xmlns:xlink="http://www.w3.org/1999/xlink" version="1.1" x="0px" y="0px" viewBox="0 0 52 65" enable-background="new 0 0 52 52" xml:space="preserve"><g><path fill="#000000" d="M49.708374,9.4329834c-0.0009766-0.0009766-0.001709-0.001709-0.0026855-0.0026855l-7.1370239-7.1361084   c-0.0010376-0.0009766-0.0021973-0.0019531-0.0032349-0.0029297L42.2353516,2h-2.828125H23c-1.6542969,0-3,1.3457031-3,3v16h-2   c-1.1025391,0-2,0.8974609-2,2v3H5c-1.6542969,0-3,1.3457031-3,3v18c0,1.6542969,1.3457031,3,3,3h6h18h6   c1.6542969,0,3-1.3457031,3-3v-3h9c1.6542969,0,3-1.3457031,3-3V12.5449219V9.7441406V9.7246094L49.708374,9.4329834z    M42.8603516,5.4519043c1.0663452,1.0644531,2.1800537,2.1745605,3.2598267,3.2502441   c0.1101074,0.1096191,0.2210083,0.2202148,0.3302002,0.3291016c0.0355835,0.0354004,0.0723267,0.0720215,0.1078491,0.1074219   h-3.697876V5.4519043z M18,23h4l-0.0009766,6H18V23z M22.0009766,29L22,30v-1H22.0009766z M12.0615234,48   c0.3310547-2.6630859,1.9716797-4.9785156,4.4023438-6.1728516c2.0566406,1.5185547,5.0097656,1.5205078,7.0722656-0.0009766   C25.9667969,43.0214844,27.6074219,45.3359375,27.9384766,48H12.0615234z M36,47c0,0.5517578-0.4482422,1-1,1h-5.0553589   c-0.3640747-3.6730957-2.7086792-6.8535156-6.1897583-8.265625c-0.3583984-0.1425781-0.7695313-0.0703125-1.0537109,0.1914063   c-1.5009766,1.3857422-3.9042969,1.3828125-5.4013672,0.0009766c-0.2861328-0.2636719-0.6962891-0.3369141-1.0546875-0.1923828   C12.7640381,41.1464844,10.4194336,44.3269043,10.0553589,48H5c-0.5517578,0-1-0.4482422-1-1V29c0-0.5517578,0.4482422-1,1-1h11v1   c0,1.1025391,0.8974609,2,2,2h4c1.1025391,0,2-0.8974609,2-2v-1h11c0.5517578,0,1,0.4482422,1,1V47z M47,42h-9V29   c0-1.6542969-1.3457031-3-3-3H24v-3c0-1.1025391-0.8974609-2-2-2V5c0-0.5517578,0.4482422-1,1-1h17.8603516v6.1386719   c0,0.5527344,0.4472656,1,1,1H48V41C48,41.5517578,47.5517578,42,47,42z"/><circle fill="#000000" cx="20" cy="36" r="3"/><path fill="#000000" d="M42,15H28c-0.5527344,0-1,0.4472656-1,1s0.4472656,1,1,1h14c0.5527344,0,1-0.4472656,1-1   S42.5527344,15,42,15z"/><path fill="#000000" d="M42,20H28c-0.5527344,0-1,0.4472656-1,1s0.4472656,1,1,1h14c0.5527344,0,1-0.4472656,1-1   S42.5527344,20,42,20z"/></g><text x="0" y="67" fill="#000000" font-size="5px" font-weight="bold" font-family="'Helvetica Neue', Helvetica, Arial-Unicode, Arial, Sans-serif">Created by Dinosoft Labs</text><text x="0" y="72" fill="#000000" font-size="5px" font-weight="bold" font-family="'Helvetica Neue', Helvetica, Arial-Unicode, Arial, Sans-serif">from the Noun Project</text></svg>