<svg xmlns="http://www.w3.org/2000/svg" xmlns:xlink="http://www.w3.org/1999/xlink" version="1.1" x="0px" y="0px" viewBox="0 0 100 125" style="enable-background:new 0 0 100 100;" xml:space="preserve"><g><path d="M47.25,40.116l4.733-1.29c0.251-0.088,0.492-0.197,0.725-0.322c1.46,1.243,3.291,1.926,5.23,1.926   c2.16,0,4.19-0.841,5.717-2.368c1.527-1.526,2.368-3.558,2.368-5.718c0-2.159-0.841-4.19-2.368-5.717   c-0.945-0.945-2.098-1.616-3.357-2.001l-0.016-1.017c-0.009-0.91-0.33-1.814-0.911-2.555l-3.935-4.927   c-1.024-1.225-2.538-1.881-4.167-1.82l-13.563,0.939c-0.424,0.023-0.851,0.176-1.214,0.438L17.798,29.595   c-0.606-0.353-1.298-0.553-2.017-0.553c-0.841,0-1.647,0.261-2.333,0.752l-6.781,4.869c-1.793,1.288-2.204,3.795-0.917,5.588   l8.572,11.938c0.751,1.046,1.968,1.67,3.256,1.67c0.841,0,1.647-0.261,2.333-0.752l6.781-4.869   c0.869-0.624,1.442-1.549,1.616-2.604c0.077-0.472,0.058-0.942-0.029-1.398l4.081-0.105c0.643-0.047,1.332-0.153,2.053-0.318   l4.529-1.055L47.25,40.116z M64.023,32.344c0,1.626-0.633,3.154-1.782,4.304s-2.678,1.782-4.303,1.782   c-1.329,0-2.59-0.43-3.663-1.241c0.014-0.019,0.036-0.038,0.049-0.057l0.522-0.672c0.009-0.01,0.018-0.021,0.027-0.032l0.711-0.68   c0.26-0.256,0.579-0.45,0.926-0.564l1.247-0.417c0.183-0.063,0.341-0.136,0.484-0.224l0.705-0.434   c0.17-0.099,0.334-0.224,0.478-0.368l0.344-0.351c0.306-0.307,0.667-0.892,0.726-1.393c0.057-0.311,0.039-0.639-0.063-1.017   l-0.114-0.363c-0.055-0.175-0.157-0.331-0.294-0.452l-0.557-0.488c-0.838-0.724-1.851-1.183-2.927-1.328l-0.154-0.021   c-0.588-0.074-1.183-0.052-1.767,0.064l-0.976,0.191c-0.19,0.018-0.373,0.062-0.56,0.093c0.169-0.224,0.35-0.439,0.549-0.638   c0.442-0.442,0.944-0.811,1.494-1.096c1.213-0.634,2.629-0.835,3.986-0.573c1.186,0.231,2.268,0.81,3.13,1.672   C63.39,29.19,64.023,30.719,64.023,32.344z M50.365,29.539l-0.305,0.125c-0.183,0.075-0.372,0.138-0.561,0.201l-2.064,0.604   c-0.527,0.151-1.036,0.23-1.529,0.236l-2.156,0.057l0.205-3.58c0.028-0.449,0.248-0.856,0.603-1.118l2.114-1.563   c0.071-0.053,0.146-0.088,0.234-0.106l4.374-0.95l2.189,2.044l0.032,0.115c-0.456,0.3-0.894,0.63-1.285,1.021   C51.394,27.447,50.769,28.45,50.365,29.539z M26.335,45.311c-0.087,0.527-0.374,0.99-0.809,1.303l-6.781,4.869   c-0.87,0.625-2.176,0.404-2.796-0.459L7.376,39.085c-0.645-0.897-0.438-2.152,0.459-2.797l6.781-4.869   c0.343-0.246,0.746-0.377,1.166-0.377c0.646,0,1.255,0.313,1.631,0.836l8.572,11.938C26.297,44.252,26.421,44.782,26.335,45.311z    M33.966,41.863c-0.619,0.141-1.208,0.232-1.704,0.27l-4.734,0.121c-0.038,0.001-0.076,0.004-0.113,0.01l-0.075,0.01l-8.089-11.266   l18.424-13.711c0.047-0.034,0.105-0.052,0.155-0.054l13.551-0.939c0.975-0.038,1.899,0.361,2.507,1.089l3.916,4.902   c0.309,0.394,0.475,0.854,0.479,1.339l0.01,0.634c-1.022-0.045-2.042,0.104-3.003,0.437c-0.115-0.267-0.266-0.512-0.468-0.696   l-2.182-2.033c-0.501-0.46-1.21-0.648-1.826-0.495l-4.333,0.959c-0.366,0.079-0.704,0.233-1.001,0.455l-2.109,1.559   c-0.831,0.614-1.345,1.562-1.411,2.606l-0.215,3.757c-0.028,0.511,0.159,1.015,0.512,1.383c0.352,0.367,0.833,0.552,1.365,0.565   l2.322-0.061c0.658-0.008,1.346-0.113,2.049-0.315l2.141-0.628c0.23-0.077,0.46-0.155,0.68-0.245l1.286-0.524   c0.551-0.225,1.146-0.366,1.769-0.42c0.036-0.003,0.071-0.008,0.107-0.015l1.03-0.202c0.377-0.074,0.757-0.088,1.118-0.044   l0.144,0.021c0.693,0.094,1.348,0.392,1.885,0.855l0.316,0.277l0.053,0.216c-0.018,0.074-0.112,0.242-0.174,0.304l-0.421,0.406   l-0.808,0.481l-1.237,0.414c-0.633,0.208-1.22,0.566-1.688,1.026l-0.745,0.712c-0.041,0.038-0.077,0.08-0.111,0.125   c-0.019,0.021-0.038,0.043-0.055,0.065l-0.556,0.716c-0.077,0.105-0.159,0.195-0.248,0.285c-0.093,0.093-0.197,0.179-0.275,0.244   c-0.26,0.205-0.556,0.366-0.812,0.458l-4.707,1.281l-8.27,2.632L33.966,41.863z"/><path d="M88.003,61.969c-0.962-0.941-2.237-1.46-3.59-1.46c-0.727,0-1.426,0.155-2.068,0.437l-5.068-4.847   c-1.175-1.122-2.72-1.74-4.35-1.74h-0.557c0.092-0.178,0.181-0.375,0.264-0.595c0.344-1.002,0.036-2.149-0.858-3.222   c-0.974-1.197-2.586-2.287-4.581-3.084c-0.163-0.058-0.315-0.114-0.51-0.189c-3.521-1.261-6.912-1.064-8.271,0.511   c-0.073,0.092-0.155,0.202-0.233,0.331c-0.708-0.173-1.503-0.275-2.39-0.275c-0.961,0-1.962,0.106-2.974,0.316   c-4.341,0.901-7.253,3.322-6.774,5.631c0.002,0.009,0.007,0.016,0.009,0.025c-0.006,0.073-0.023,0.143-0.012,0.218l0.128,0.887   l-2.591-2.766c-2.086-2.216-5.59-2.329-7.82-0.241c-0.598,0.574-0.941,1.374-0.941,2.194c0,0.771,0.289,1.504,0.815,2.068   l7.586,8.086c0.029,0.031,0.062,0.055,0.092,0.084c0,0,0,0,0,0l0.001,0.001c0.193,0.19,0.401,0.356,0.62,0.502l5.367,4.344   c1.868,1.513,4.229,2.347,6.646,2.347h9.649c1.547,0,3.023,0.487,4.266,1.408l0.433,0.323c-0.26,0.63-0.397,1.312-0.389,2.017   c0.015,1.374,0.561,2.657,1.538,3.614l5.46,5.344c0.961,0.941,2.237,1.46,3.59,1.46c0,0,0,0,0,0c1.395,0,2.698-0.546,3.668-1.538   l9.385-9.589c0.956-0.976,1.475-2.271,1.46-3.646c-0.015-1.374-0.561-2.657-1.538-3.613L88.003,61.969z M65.985,49.143   c0.192,0.074,0.363,0.139,0.505,0.188c1.62,0.648,2.98,1.55,3.74,2.483c0.424,0.509,0.615,0.995,0.521,1.271   c-0.284,0.749-0.519,0.796-0.521,0.796c-0.356,0-0.655,0.197-0.832,0.478h-2.185c-0.652,0-1.303,0.106-1.923,0.306   c-0.557-0.116-1.133-0.272-1.728-0.482c-0.726-0.256-1.4-0.578-2.032-0.937c-0.068-0.379-0.15-0.794-0.247-1.252l-0.042-0.2   c-0.002-0.009-0.008-0.015-0.01-0.024c0.098-0.381,0.12-0.767,0.04-1.15c-0.139-0.668-0.548-1.234-1.167-1.681   C60.856,48.359,63.142,48.125,65.985,49.143z M53.482,56.738c-1.347,0-2.535,0.677-3.255,1.705   c-0.961-0.215-1.509-0.579-1.661-0.901l-0.215-1.488c0.87,0.326,1.938,0.511,3.171,0.511c0.961,0,1.961-0.106,2.974-0.316   c2.128-0.442,3.91-1.251,5.12-2.231l0.062,0.299c0.152,1.02,0.138,1.463,0.109,1.634c-0.241,0.209-0.813,0.571-1.104,0.756   l-0.05,0.032L53.482,56.738z M61.802,55.617c0.338,0.15,0.678,0.298,1.033,0.425l-0.991,0.699l-0.204,0   C61.745,56.471,61.804,56.115,61.802,55.617z M53.221,50.11c0.879-0.184,1.743-0.275,2.567-0.275c2.051,0,3.402,0.605,3.523,1.19   c0.173,0.832-1.822,2.56-5.222,3.266c-0.879,0.183-1.743,0.275-2.567,0.275c-2.051,0-3.402-0.605-3.524-1.19   C47.826,52.543,49.82,50.815,53.221,50.11z M65.589,69.532H55.94c-1.96,0-3.873-0.675-5.387-1.901L44.62,62.83l-7.532-8.028   c-0.228-0.245-0.276-0.517-0.276-0.702c0-0.282,0.116-0.55,0.317-0.742c1.418-1.326,3.656-1.256,4.986,0.158l3.722,3.973   c0.037,0.039,0.085,0.058,0.126,0.089c0.033,0.026,0.054,0.06,0.09,0.082l0.557,0.336l0.025,0.175   c0.037,0.252,0.165,0.468,0.346,0.62c0.498,0.708,1.383,1.235,2.564,1.54c-0.012,0.128-0.039,0.252-0.039,0.383   c0,2.192,1.783,3.976,3.975,3.976h9.967c0.552,0,1-0.447,1-1s-0.448-1-1-1h-9.967c-1.089,0-1.975-0.887-1.975-1.976   s0.886-1.976,1.975-1.976l5.417,0.002c0.007,0,0.013,0.004,0.02,0.004c0.009,0,0.018-0.004,0.028-0.004l3.214,0.001c0,0,0,0,0,0   c0.037,0,0.068-0.017,0.105-0.021c0.066-0.007,0.128-0.019,0.192-0.039c0.067-0.021,0.126-0.048,0.186-0.082   c0.03-0.017,0.064-0.021,0.093-0.041l2.002-1.412c0.715-0.508,1.594-0.788,2.474-0.788h5.712c1.113,0,2.167,0.422,2.968,1.187   l4.781,4.572l-9.277,9.479l-0.349-0.261C69.455,70.155,67.567,69.532,65.589,69.532z M92.111,73.173l-9.386,9.589   c-0.591,0.604-1.386,0.937-2.239,0.937c0,0,0,0,0,0c-0.827,0-1.605-0.316-2.191-0.89l-5.46-5.344   c-0.595-0.582-0.928-1.365-0.937-2.206c-0.009-0.84,0.307-1.63,0.889-2.225l9.386-9.589c0.591-0.604,1.386-0.937,2.239-0.937   c0.827,0,1.605,0.315,2.191,0.89l5.46,5.344c0.595,0.582,0.927,1.365,0.936,2.205C93.009,71.788,92.693,72.578,92.111,73.173z"/><circle cx="75.397" cy="75.665" r="2.063"/></g><text x="0" y="115" fill="#000000" font-size="5px" font-weight="bold" font-family="'Helvetica Neue', Helvetica, Arial-Unicode, Arial, Sans-serif">Created by Maxim Kulikov</text><text x="0" y="120" fill="#000000" font-size="5px" font-weight="bold" font-family="'Helvetica Neue', Helvetica, Arial-Unicode, Arial, Sans-serif">from the Noun Project</text></svg>