<svg xmlns="http://www.w3.org/2000/svg" xmlns:xlink="http://www.w3.org/1999/xlink" version="1.1" x="0px" y="0px" viewBox="1 -1 100 125" style="enable-background:new 1 -1 100 100;" xml:space="preserve"><path d="M94.2,55.8l-7.9-13.1c-1.4-2.4-4.1-3.9-6.9-3.9H61.3c-1.1,0-2,0.9-2,2V55h-5.9V35.8h1.1c1.1,0,2-0.9,2-2V23.1  c0-1.1-0.9-2-2-2h-7.1c0.3-0.8,0.5-1.7,0.5-2.6c0-3.6-3-6.6-6.6-6.6c-3.7,0-6.9,2.1-9.2,6.1C29.9,14.1,26.7,12,23,12  c-3.6,0-6.6,3-6.6,6.6c0,0.9,0.2,1.8,0.5,2.6H9.9c-1.1,0-2,0.9-2,2v10.7c0,1.1,0.9,2,2,2H11v19.4c-3.1,0.7-5.5,3.5-5.5,6.8v9.2  c0,3.9,3.1,7,7,7h2.2c0.9,4.5,4.8,7.8,9.5,7.8c4.7,0,8.6-3.3,9.5-7.8h36.5c0.9,4.5,4.8,7.8,9.5,7.8c4.7,0,8.6-3.3,9.5-7.8h0.3  c3.9,0,7-3.1,7-7V60C96.5,58.3,95.6,56.7,94.2,55.8z M24.2,82c-3.1,0-5.7-2.5-5.7-5.7s2.5-5.7,5.7-5.7c3.1,0,5.7,2.5,5.7,5.7  S27.3,82,24.2,82z M23,16c3.2,0,5.2,3,6.3,5.2H23c-1.4,0-2.6-1.2-2.6-2.6S21.6,16,23,16z M49.4,35.8V55H34.2V35.8H49.4z M52.5,31.8  H34.2v-6.7h18.3V31.8z M41.4,21.1h-6.3c1-2.2,3.1-5.2,6.3-5.2c1.4,0,2.6,1.2,2.6,2.6S42.8,21.1,41.4,21.1z M30.2,35.8V55H15V35.8  H30.2z M30.2,31.8H11.9v-6.7h18.3V31.8z M14.8,74.2h-2.3c-1.7,0-3-1.3-3-3V62c0-1.7,1.3-3,3-3h46.8v15.2H33.6  c-1-4.3-4.9-7.5-9.4-7.5S15.8,69.9,14.8,74.2z M79.7,82c-3.1,0-5.7-2.5-5.7-5.7s2.5-5.7,5.7-5.7s5.7,2.5,5.7,5.7S82.8,82,79.7,82z   M89.5,74.2h-0.4c-1-4.3-4.9-7.5-9.4-7.5s-8.4,3.2-9.4,7.5h-7V59h28.2c0.6,0,1,0.4,1,1v11.2C92.5,72.8,91.1,74.2,89.5,74.2z M89,55  H63.3V42.9h16.1c1.4,0,2.7,0.7,3.4,1.9L89,55z"/><text x="1" y="114" fill="#000000" font-size="5px" font-weight="bold" font-family="'Helvetica Neue', Helvetica, Arial-Unicode, Arial, Sans-serif">Created by Amelia</text><text x="1" y="119" fill="#000000" font-size="5px" font-weight="bold" font-family="'Helvetica Neue', Helvetica, Arial-Unicode, Arial, Sans-serif">from the Noun Project</text></svg>