<svg xmlns="http://www.w3.org/2000/svg" xmlns:xlink="http://www.w3.org/1999/xlink" version="1.1" x="0px" y="0px" viewBox="0 0 100 125" style="enable-background:new 0 0 100 100;" xml:space="preserve"><style type="text/css">
	.st0{display:none;}
</style><g><g><path d="M89.9,59.9L82.2,21l-38.9,7.6L51,67.6L89.9,59.9z M79.1,25.7l6.1,31.1l-31.1,6.1L48,31.8L79.1,25.7z"/><path d="M58.2,47c0.3,0.2,0.7,0.3,1,0.3c0.7,0,1.3-0.3,1.7-0.9l3.1-4.9L66.3,53c0.2,1,1,1.6,2,1.6c0.1,0,0.3,0,0.4,0    c1.1-0.2,1.8-1.3,1.6-2.3l-2.3-11.6l4.7,3.4c0.4,0.3,0.8,0.4,1.2,0.4c0.6,0,1.2-0.3,1.6-0.8c0.7-0.9,0.5-2.1-0.4-2.8l-8.8-6.4    c0,0,0,0,0,0c0,0,0,0-0.1,0c0,0,0,0,0,0c0,0-0.1,0-0.1-0.1c0,0-0.1-0.1-0.1-0.1c0,0,0,0-0.1,0c-0.1,0-0.1,0-0.2-0.1    c0,0-0.1,0-0.1,0c0,0,0,0-0.1,0c-0.1,0-0.1,0-0.2,0c0,0-0.1,0-0.1,0c0,0,0,0-0.1,0c-0.1,0-0.1,0-0.2,0c0,0-0.1,0-0.1,0    c0,0,0,0,0,0c0,0,0,0,0,0c-0.1,0-0.1,0-0.2,0c0,0-0.1,0-0.1,0c0,0,0,0-0.1,0c0,0-0.1,0.1-0.1,0.1c0,0-0.1,0-0.1,0.1c0,0,0,0-0.1,0    c0,0-0.1,0.1-0.1,0.1c0,0-0.1,0.1-0.1,0.1c0,0,0,0-0.1,0.1c0,0-0.1,0.1-0.1,0.1c0,0-0.1,0.1-0.1,0.1c0,0,0,0,0,0c0,0,0,0,0,0.1    c0,0,0,0,0,0l-5.7,9.3C57,45.2,57.2,46.4,58.2,47z"/><path d="M23.3,8.4l11.9,60.8c-2.8,1-5.2,2.8-6.9,5.3c-2.1,3.1-2.8,6.8-2.1,10.4c0.7,3.6,2.8,6.8,5.9,8.8c2.3,1.5,5,2.4,7.7,2.4    c0.9,0,1.8-0.1,2.7-0.3c3.6-0.7,6.8-2.8,8.8-5.9c1.7-2.5,2.5-5.4,2.3-8.4l41.6-8.2l-0.8-3.9l-41.6,8.2c-1-2.8-2.8-5.2-5.3-6.9    c-2.5-1.7-5.4-2.5-8.4-2.3L26.8,5.6c-0.2-1.1-1.3-1.8-2.3-1.6L4.8,7.9l0.8,3.9L23.3,8.4z M45.3,74c2.2,1.5,3.7,3.7,4.2,6.3    s0,5.2-1.5,7.4c-1.5,2.2-3.7,3.7-6.3,4.2c-2.6,0.5-5.2,0-7.4-1.5s-3.7-3.7-4.2-6.3s0-5.2,1.5-7.4s3.7-3.7,6.3-4.2    c0.6-0.1,1.3-0.2,1.9-0.2C41.8,72.3,43.7,72.9,45.3,74z"/></g></g><text x="0" y="115" fill="#000000" font-size="5px" font-weight="bold" font-family="'Helvetica Neue', Helvetica, Arial-Unicode, Arial, Sans-serif">Created by Ruslan Dezign </text><text x="0" y="120" fill="#000000" font-size="5px" font-weight="bold" font-family="'Helvetica Neue', Helvetica, Arial-Unicode, Arial, Sans-serif">from the Noun Project</text></svg>